<svg width="83" height="26" viewBox="0 0 83 26" fill="none" xmlns="http://www.w3.org/2000/svg">
<path d="M2.7832 3.78125H5.57617L8.75 13.6738L11.9238 3.78125H14.7168L9.88281 18H7.61719L2.7832 3.78125ZM1.08398 3.78125H3.97461L4.51172 14.6797V18H1.08398V3.78125ZM13.5254 3.78125H16.4258V18H12.9883V14.6797L13.5254 3.78125Z" fill="white"/>
<g filter="url(#filter0_d_1_9)">
<path d="M21.2969 18H24.4512L24.4316 15.3633H21.2969C20.6458 15.3633 20.0957 15.207 19.6465 14.8945C19.1908 14.582 18.8457 14.1165 18.6113 13.498C18.3704 12.873 18.25 12.1048 18.25 11.1934V10.5781C18.25 9.89453 18.3184 9.29557 18.4551 8.78125C18.5853 8.26042 18.7806 7.82747 19.041 7.48242C19.3014 7.13086 19.627 6.86719 20.0176 6.69141C20.4017 6.51562 20.8444 6.42773 21.3457 6.42773H24.5098V3.78125H21.3457C20.3822 3.78125 19.5 3.94727 18.6992 4.2793C17.8919 4.60482 17.1953 5.07357 16.6094 5.68555C16.0169 6.29102 15.5612 7.01042 15.2422 7.84375C14.9167 8.67057 14.7539 9.58854 14.7539 10.5977V11.1934C14.7539 12.196 14.9167 13.1139 15.2422 13.9473C15.5612 14.7806 16.0137 15.5 16.5996 16.1055C17.1855 16.7109 17.8789 17.1797 18.6797 17.5117C19.474 17.8372 20.3464 18 21.2969 18ZM22.4883 3.78125V18H25.916V3.78125H22.4883Z" fill="white"/>
</g>
<path d="M36.1699 13.1855H39.5879C39.5423 14.1751 39.2754 15.0475 38.7871 15.8027C38.2988 16.5579 37.6217 17.1471 36.7559 17.5703C35.8965 17.987 34.8809 18.1953 33.709 18.1953C32.7585 18.1953 31.9089 18.0358 31.1602 17.7168C30.418 17.3978 29.7865 16.9388 29.2656 16.3398C28.7513 15.7409 28.3574 15.015 28.084 14.1621C27.8171 13.3092 27.6836 12.349 27.6836 11.2812V10.5098C27.6836 9.44206 27.8236 8.48177 28.1035 7.62891C28.39 6.76953 28.7936 6.04036 29.3145 5.44141C29.8418 4.83594 30.4733 4.3737 31.209 4.05469C31.9447 3.73568 32.7617 3.57617 33.6602 3.57617C34.8971 3.57617 35.9421 3.79753 36.7949 4.24023C37.6478 4.68294 38.3086 5.29167 38.7773 6.06641C39.2461 6.83464 39.5228 7.71029 39.6074 8.69336H36.1895C36.1764 8.15951 36.0853 7.71354 35.916 7.35547C35.7467 6.99089 35.4798 6.71745 35.1152 6.53516C34.7507 6.35286 34.2656 6.26172 33.6602 6.26172C33.237 6.26172 32.8691 6.33984 32.5566 6.49609C32.2441 6.65234 31.9837 6.89974 31.7754 7.23828C31.5671 7.57682 31.4108 8.01628 31.3066 8.55664C31.209 9.09049 31.1602 9.73503 31.1602 10.4902V11.2812C31.1602 12.0365 31.2057 12.681 31.2969 13.2148C31.388 13.7487 31.5345 14.1849 31.7363 14.5234C31.9382 14.862 32.1986 15.1126 32.5176 15.2754C32.8431 15.4316 33.2402 15.5098 33.709 15.5098C34.2298 15.5098 34.6693 15.4284 35.0273 15.2656C35.3854 15.0964 35.6621 14.8424 35.8574 14.5039C36.0527 14.1589 36.1569 13.7194 36.1699 13.1855ZM54.8402 10.6074V11.1836C54.8402 12.2708 54.6872 13.2474 54.3813 14.1133C54.0818 14.9727 53.6553 15.7083 53.102 16.3203C52.5486 16.9258 51.8943 17.3913 51.1391 17.7168C50.3839 18.0358 49.5505 18.1953 48.6391 18.1953C47.7211 18.1953 46.8813 18.0358 46.1195 17.7168C45.3643 17.3913 44.7068 16.9258 44.1469 16.3203C43.5935 15.7083 43.1638 14.9727 42.8578 14.1133C42.5583 13.2474 42.4086 12.2708 42.4086 11.1836V10.6074C42.4086 9.52018 42.5583 8.54362 42.8578 7.67773C43.1638 6.81185 43.5902 6.07617 44.1371 5.4707C44.6905 4.85872 45.3448 4.39323 46.1 4.07422C46.8617 3.7487 47.7016 3.58594 48.6195 3.58594C49.531 3.58594 50.3643 3.7487 51.1195 4.07422C51.8813 4.39323 52.5388 4.85872 53.0922 5.4707C53.6456 6.07617 54.0753 6.81185 54.3813 7.67773C54.6872 8.54362 54.8402 9.52018 54.8402 10.6074ZM51.3637 11.1836V10.5879C51.3637 9.88477 51.3018 9.26628 51.1781 8.73242C51.0609 8.19206 50.8852 7.73958 50.6508 7.375C50.4164 7.01042 50.1267 6.73698 49.7816 6.55469C49.4431 6.36589 49.0557 6.27148 48.6195 6.27148C48.1638 6.27148 47.7667 6.36589 47.4281 6.55469C47.0896 6.73698 46.8064 7.01042 46.5785 7.375C46.3507 7.73958 46.1781 8.19206 46.0609 8.73242C45.9503 9.26628 45.8949 9.88477 45.8949 10.5879V11.1836C45.8949 11.8802 45.9503 12.4987 46.0609 13.0391C46.1781 13.5729 46.3507 14.0254 46.5785 14.3965C46.8129 14.7676 47.0993 15.0475 47.4379 15.2363C47.7829 15.4251 48.1833 15.5195 48.6391 15.5195C49.0753 15.5195 49.4626 15.4251 49.8012 15.2363C50.1397 15.0475 50.4229 14.7676 50.6508 14.3965C50.8852 14.0254 51.0609 13.5729 51.1781 13.0391C51.3018 12.4987 51.3637 11.8802 51.3637 11.1836ZM62.8367 18H59.6824L59.702 15.3633H62.8367C63.4878 15.3633 64.0379 15.207 64.4871 14.8945C64.9428 14.582 65.2879 14.1165 65.5223 13.498C65.7632 12.873 65.8836 12.1048 65.8836 11.1934V10.5781C65.8836 9.89453 65.8152 9.29557 65.6785 8.78125C65.5483 8.26042 65.353 7.82747 65.0926 7.48242C64.8322 7.13086 64.5066 6.86719 64.116 6.69141C63.7319 6.51562 63.2892 6.42773 62.7879 6.42773H59.6238V3.78125H62.7879C63.7514 3.78125 64.6336 3.94727 65.4344 4.2793C66.2417 4.60482 66.9383 5.07357 67.5242 5.68555C68.1167 6.29102 68.5724 7.01042 68.8914 7.84375C69.2169 8.67057 69.3797 9.58854 69.3797 10.5977V11.1934C69.3797 12.196 69.2169 13.1139 68.8914 13.9473C68.5724 14.7806 68.1199 15.5 67.534 16.1055C66.948 16.7109 66.2547 17.1797 65.4539 17.5117C64.6596 17.8372 63.7872 18 62.8367 18ZM61.6453 3.78125V18H58.2176V3.78125H61.6453ZM82.552 15.3633V18H74.9738V15.3633H82.552ZM76.1945 3.78125V18H72.7668V3.78125H76.1945ZM81.5754 9.42578V11.9746H74.9738V9.42578H81.5754ZM82.5812 3.78125V6.42773H74.9738V3.78125H82.5812Z" fill="#6610F2"/>
<defs>
<filter id="filter0_d_1_9" x="10.7539" y="3.78125" width="19.1621" height="22.2188" filterUnits="userSpaceOnUse" color-interpolation-filters="sRGB">
<feFlood flood-opacity="0" result="BackgroundImageFix"/>
<feColorMatrix in="SourceAlpha" type="matrix" values="0 0 0 0 0 0 0 0 0 0 0 0 0 0 0 0 0 0 127 0" result="hardAlpha"/>
<feOffset dy="4"/>
<feGaussianBlur stdDeviation="2"/>
<feComposite in2="hardAlpha" operator="out"/>
<feColorMatrix type="matrix" values="0 0 0 0 0 0 0 0 0 0 0 0 0 0 0 0 0 0 0.25 0"/>
<feBlend mode="normal" in2="BackgroundImageFix" result="effect1_dropShadow_1_9"/>
<feBlend mode="normal" in="SourceGraphic" in2="effect1_dropShadow_1_9" result="shape"/>
</filter>
</defs>
</svg>
